<?xml version="1.0" encoding="UTF-8" standalone="no"?>
<svg
   width="50mm"
   height="50mm"
   fill-rule="evenodd"
   clip-rule="evenodd"
   image-rendering="optimizeQuality"
   shape-rendering="geometricPrecision"
   text-rendering="geometricPrecision"
   viewBox="0 0 50 50"
   version="1.1"
   id="svg4"
   sodipodi:docname="wK.svg"
   inkscape:version="1.4.2 (f4327f4, 2025-05-13)"
   xmlns:inkscape="http://www.inkscape.org/namespaces/inkscape"
   xmlns:sodipodi="http://sodipodi.sourceforge.net/DTD/sodipodi-0.dtd"
   xmlns="http://www.w3.org/2000/svg"
   xmlns:svg="http://www.w3.org/2000/svg">
  <defs
     id="defs4" />
  <sodipodi:namedview
     id="namedview4"
     pagecolor="#505050"
     bordercolor="#ffffff"
     borderopacity="1"
     inkscape:showpageshadow="0"
     inkscape:pageopacity="0"
     inkscape:pagecheckerboard="false"
     inkscape:deskcolor="#505050"
     inkscape:document-units="mm"
     inkscape:zoom="2.174875"
     inkscape:cx="-39.312604"
     inkscape:cy="52.876602"
     inkscape:window-width="1536"
     inkscape:window-height="801"
     inkscape:window-x="-8"
     inkscape:window-y="-8"
     inkscape:window-maximized="1"
     inkscape:current-layer="svg4" />
  <path
     fill="#4b403b"
     d="m 25.006,7.3038441 c -1.803,0.1 -3.228,1.234 -3.228,2.6179999 0,0.565 0.244,1.644 0.693,2.097 h -5.766 v 5.106 h 6.306 L 23.074,18.689 c -5.584,0.362 -12.02,1.643 -13.154,3.997 -1.268,2.638 6.215,15.6 6.215,15.6 h 17.73 c 0,0 7.484,-12.963 6.215,-15.6 -1.133,-2.357 -7.594,-3.64 -13.179,-3.999 l 0.1,-1.562156 h 6.306 v -5.106 H 27.54 c 0.449,-0.453 0.693,-1.531 0.693,-2.097 0,-1.3839999 -1.425,-2.5179999 -3.228,-2.6179999 z"
     style="paint-order:fill markers stroke;fill:#d9c8b5;fill-opacity:1"
     id="path1-9"
     sodipodi:nodetypes="csccccccccccccccscc" />
  <path
     d="m 31.289,38.283 2.573,-0.005 c 0,0 7.482,-12.428 6.214,-15.065 -4.136,-3.824 -13.18,-4.525 -13.18,-4.525 11.05,2.822 12.618,5.028 4.393,19.595"
     opacity="0.1"
     id="path2" />
  <path
     fill="#4b403b"
     d="m 13.242,38.286 c -1.437,0 -2.627,1.216 -2.627,2.685 v 0.545 l 0.013,2.684 h 28.749 l 0.012,-2.684 v -0.545 c 0,-1.468 -1.19,-2.685 -2.627,-2.685 h -11.76 z"
     id="path3-8"
     style="fill:#d9c8b5;fill-opacity:1" />
  <path
     fill="#ffffff"
     d="m 13.283,31.138 c 0,0 -3.074,-6.555 -2.666,-8.092 0.408,-1.536 5.987,-2.736 5.987,-2.736 -6.486,2.71 -4.786,4.558 -3.321,10.828 m 4.238,-14.94719 v -3.52 l 1.532,-0.011 c -0.891,0.007 -1.532,2.147 -1.532,3.531 m 7.277,-8.214 c 0,0 -2.614,0.92 -1.53,3.522 -0.178,-0.007 -2.142,-2.72 1.53,-3.522"
     opacity="0.25"
     id="path4-8"
     sodipodi:nodetypes="ccccccccccc"
     style="opacity:1" />
</svg>
